<?xml version="1.0" encoding="UTF-8"?>
<svg id="Layer_2" data-name="Layer 2" xmlns="http://www.w3.org/2000/svg" viewBox="0 0 815.52 317.37">
  <defs>
    <style>
      .cls-1 {
        fill: #fbd68f;
      }

      .cls-2 {
        fill: #7f4f20;
      }

      .cls-3 {
        fill: #286226;
      }

      .cls-4 {
        fill: #fff;
        font-family: Hind-Bold, Hind;
        font-size: 160px;
        font-weight: 700;
        letter-spacing: -.03em;
      }
    </style>
  </defs>
  <g id="Layer_1-2" data-name="Layer 1">
    <text class="cls-4" transform="translate(228.64 234.65)"><tspan x="0" y="0">ISLANDS</tspan></text>
    <g>
      <path class="cls-1" d="m128.43,184.58c-53.86,0-97.79,21.26-100,47.9-.09,1.14,1.29,2.1,3.01,2.1h193.97c1.72,0,3.1-.96,3.01-2.1-2.21-26.64-46.13-47.9-100-47.9Z"/>
      <path class="cls-2" d="m68.39,63.05c29.18,32.7,37.21,104.88,38.59,119.88.14,1.56,1.46,2.74,3.03,2.72l30.73-.51c1.96-.03,3.36-1.91,2.84-3.8-21.71-79.09-59.43-116.68-65.65-122.46-.55-.51-1.28-.8-2.03-.8h-5.27c-2.58,0-3.96,3.05-2.24,4.97Z"/>
      <path class="cls-3" d="m82.42,56.12C43.45,15.4,13.5,62.43,2.75,83.7c-1.35,2.68,1.63,5.48,4.2,3.93,32.24-19.5,61.59-24.99,73.66-26.49,2.43-.3,3.5-3.25,1.8-5.02Z"/>
      <path class="cls-3" d="m74.24,51.72C71.37.68,22.94,12.57,1.98,20.18c-2.83,1.03-2.56,5.12.39,5.74,33.86,7.19,57.5,21.69,67.15,28.44,2.06,1.44,4.86-.13,4.72-2.64Z"/>
      <path class="cls-3" d="m62.54,58.05C41.75-2.02,106.14-1.66,132.09.78c3,.28,3.76,4.32,1.06,5.67-36.9,18.47-57.88,42.59-65.41,52.43-1.45,1.89-4.43,1.43-5.21-.82Z"/>
      <path class="cls-3" d="m68.29,56.46c31.88-47.22,70.54-6.45,85.18,12.45,1.85,2.38-.57,5.69-3.4,4.65-36.06-13.26-66.68-13.21-79.11-12.45-2.47.15-4.06-2.6-2.67-4.64Z"/>
    </g>
  </g>
</svg>
