<svg width="1920" height="758" viewBox="0 0 1920 758" fill="none" xmlns="http://www.w3.org/2000/svg">
<path fill-rule="evenodd" clip-rule="evenodd" d="M1785.01 0H1784.99C1784.46 20.4802 1751.09 37 1710 37C1668.91 37 1635.54 20.4802 1635.01 0H1634.99C1634.46 20.4802 1601.09 37 1560 37C1518.91 37 1485.54 20.4802 1485.01 0H1484.99C1484.46 20.4802 1451.09 37 1410 37C1368.91 37 1335.54 20.4802 1335.01 0H1334.99C1334.46 20.4802 1301.09 37 1260 37C1218.91 37 1185.54 20.4802 1185.01 0H1184.99C1184.46 20.4802 1151.09 37 1110 37C1068.91 37 1035.54 20.4802 1035.01 0H1034.99C1034.46 20.4802 1001.09 37 960 37C918.912 37 885.542 20.4802 885.007 0H884.993C884.458 20.4802 851.088 37 810 37C768.912 37 735.542 20.4802 735.007 0H734.993C734.458 20.4802 701.088 37 660 37C618.912 37 585.542 20.4802 585.007 0H584.993C584.458 20.4802 551.088 37 510 37C468.913 37 435.542 20.4802 435.007 0H434.993C434.458 20.4802 401.087 37 360 37C318.913 37 285.542 20.4802 285.007 0H284.993C284.458 20.4802 251.088 37 210 37C168.912 37 135.542 20.4802 135.007 0H134.993C134.458 20.4802 101.088 37 60 37C35.466 37 13.6834 31.1099 0 22.0037V757.5H1920V22.0037C1906.32 31.1099 1884.53 37 1860 37C1818.91 37 1785.54 20.4802 1785.01 0Z" fill="#1C488A"/>
</svg>
